<?xml version="1.0" encoding="utf-8"?>
<!-- Generator: Adobe Illustrator 27.5.0, SVG Export Plug-In . SVG Version: 6.00 Build 0)  -->
<svg version="1.1" id="Layer_1" xmlns="http://www.w3.org/2000/svg" xmlns:xlink="http://www.w3.org/1999/xlink" x="0px" y="0px"
	 viewBox="0 0 4000 4000" style="enable-background:new 0 0 4000 4000;" xml:space="preserve">
<rect style="fill:#FFFFFF;" width="4000" height="4000"/>
<g>
	<g>
		<defs>
			<path id="SVGID_1_" d="M2231.487,1929.11l-229.207,55.746c82.079,76.768,253.639,44.906,360.565-2.739
				c-7.139-26.856-11.979-54.051-14.847-81.342L2231.487,1929.11z"/>
		</defs>
		<clipPath id="SVGID_00000117667082930995017370000011509482564955994277_">
			<use xlink:href="#SVGID_1_"  style="overflow:visible;"/>
		</clipPath>
		
			<linearGradient id="SVGID_00000137097784117752912110000015198990810150570174_" gradientUnits="userSpaceOnUse" x1="2209.2913" y1="2024.1049" x2="2080.3574" y2="1817.1371">
			<stop  offset="0" style="stop-color:#008A80"/>
			<stop  offset="1" style="stop-color:#EBF855"/>
		</linearGradient>
		
			<rect x="2002.28" y="1900.775" style="clip-path:url(#SVGID_00000117667082930995017370000011509482564955994277_);fill:url(#SVGID_00000137097784117752912110000015198990810150570174_);" width="360.565" height="160.849"/>
	</g>
	<defs>
		<filter id="Adobe_OpacityMaskFilter" filterUnits="userSpaceOnUse" x="2002.28" y="1900.775" width="349.192" height="89.685">
			<feColorMatrix  type="matrix" values="1 0 0 0 0  0 1 0 0 0  0 0 1 0 0  0 0 0 1 0"/>
		</filter>
	</defs>
	
		<mask maskUnits="userSpaceOnUse" x="2002.28" y="1900.775" width="349.192" height="89.685" id="SVGID_00000158707588901907406550000007055968045816696510_">
		<g style="filter:url(#Adobe_OpacityMaskFilter);">
			
				<linearGradient id="SVGID_00000061467465168977841800000004045619168834118065_" gradientUnits="userSpaceOnUse" x1="909.1288" y1="4620.6758" x2="-89.803" y2="4268.2495" gradientTransform="matrix(1 0 0 1 1567.243 -2569.3945)">
				<stop  offset="0" style="stop-color:#FFFFFF"/>
				<stop  offset="1" style="stop-color:#000000"/>
			</linearGradient>
			
				<rect x="2002.28" y="1900.775" style="fill:url(#SVGID_00000061467465168977841800000004045619168834118065_);" width="349.192" height="89.687"/>
		</g>
	</mask>
	
		<path style="mask:url(#SVGID_00000158707588901907406550000007055968045816696510_);fill-rule:evenodd;clip-rule:evenodd;fill:#005B50;" d="
		M2231.487,1929.11l-229.207,55.746c0,0,195.44,32.073,349.192-57.253c-1.377-8.925-2.531-17.871-3.474-26.828L2231.487,1929.11z"/>
	<g>
		<defs>
			<path id="SVGID_00000008846178124317235400000011748195293990609821_" d="M2153.642,1844.946l-288.641,22.007
				c95.233,123.641,356.843,101.581,487.67,52.387c-5.165-29.478-7.972-59.218-8.776-88.9L2153.642,1844.946z"/>
		</defs>
		<clipPath id="SVGID_00000072258210455667082990000009775839074331833266_">
			<use xlink:href="#SVGID_00000008846178124317235400000011748195293990609821_"  style="overflow:visible;"/>
		</clipPath>
		
			<linearGradient id="SVGID_00000011003458940519268450000004140140389032085925_" gradientUnits="userSpaceOnUse" x1="2104.9133" y1="1911.5482" x2="1730.1481" y2="2010.0863">
			<stop  offset="0" style="stop-color:#008A80"/>
			<stop  offset="1" style="stop-color:#EBF855"/>
		</linearGradient>
		
			<rect x="1865.001" y="1830.44" style="clip-path:url(#SVGID_00000072258210455667082990000009775839074331833266_);fill:url(#SVGID_00000011003458940519268450000004140140389032085925_);" width="487.67" height="160.154"/>
	</g>
	<g>
		<defs>
			<path id="SVGID_00000014608165590355469740000009914202074641923479_" d="M2063.365,1715.134l-366.115-40.774
				c99.305,195.821,495.023,217.106,647.152,169.149c-1.522-32.449-0.636-64.869,2.15-96.84L2063.365,1715.134z"/>
		</defs>
		<clipPath id="SVGID_00000082351494048452643510000011697247557002703787_">
			<use xlink:href="#SVGID_00000014608165590355469740000009914202074641923479_"  style="overflow:visible;"/>
		</clipPath>
		
			<linearGradient id="SVGID_00000108302335446927963540000004504243211292285368_" gradientUnits="userSpaceOnUse" x1="1949.0574" y1="1780.9467" x2="1578.6791" y2="1770.9503">
			<stop  offset="0" style="stop-color:#008A80"/>
			<stop  offset="1" style="stop-color:#EBF855"/>
		</linearGradient>
		
			<rect x="1697.25" y="1674.36" style="clip-path:url(#SVGID_00000082351494048452643510000011697247557002703787_);fill:url(#SVGID_00000108302335446927963540000004504243211292285368_);" width="649.302" height="217.106"/>
	</g>
	<g>
		<defs>
			<path id="SVGID_00000111891921826014795790000003262563839018627753_" d="M2027.933,1558.932l-400.594-133.799
				c68.528,259.808,563.433,377.948,717.823,339.977c1.626-25.581,4.495-50.928,8.368-75.819l-7.103-23.982L2027.933,1558.932z"/>
		</defs>
		<clipPath id="SVGID_00000127037707431139214490000005173311469678379689_">
			<use xlink:href="#SVGID_00000111891921826014795790000003262563839018627753_"  style="overflow:visible;"/>
		</clipPath>
		
			<linearGradient id="SVGID_00000131359849288045409920000005066044525008497795_" gradientUnits="userSpaceOnUse" x1="2042.3372" y1="1624.6183" x2="1484.2689" y2="1511.5962">
			<stop  offset="0" style="stop-color:#008A80"/>
			<stop  offset="1" style="stop-color:#EBF855"/>
		</linearGradient>
		
			<rect x="1627.339" y="1425.133" style="clip-path:url(#SVGID_00000127037707431139214490000005173311469678379689_);fill:url(#SVGID_00000131359849288045409920000005066044525008497795_);" width="726.191" height="377.948"/>
	</g>
	<g>
		<defs>
			<path id="SVGID_00000135690426131003508360000016948428459773409188_" d="M2075.977,1415.889l-361.815-217.868
				c10.579,276.566,495.425,504.998,639.984,487.276c3.327-20.792,7.358-41.228,11.88-61.228l-2.386-34.964L2075.977,1415.889z"/>
		</defs>
		<clipPath id="SVGID_00000062877149764663968020000003284502352552168329_">
			<use xlink:href="#SVGID_00000135690426131003508360000016948428459773409188_"  style="overflow:visible;"/>
		</clipPath>
		
			<linearGradient id="SVGID_00000147212539425295008100000003213729623828901782_" gradientUnits="userSpaceOnUse" x1="2155.2581" y1="1580.74" x2="1741.7318" y2="1113.1494">
			<stop  offset="0" style="stop-color:#008A80"/>
			<stop  offset="1" style="stop-color:#EBF855"/>
		</linearGradient>
		
			<rect x="1714.162" y="1198.021" style="clip-path:url(#SVGID_00000062877149764663968020000003284502352552168329_);fill:url(#SVGID_00000147212539425295008100000003213729623828901782_);" width="651.865" height="504.998"/>
	</g>
	<g>
		<defs>
			<path id="SVGID_00000089543886735435481930000011632855094063193735_" d="M2160.128,1318.551l-294.725-265.997
				c-39.821,256.583,364.863,553.759,502.214,564.467c7.226-30.955,15.664-60.74,24.693-88.923L2160.128,1318.551z"/>
		</defs>
		<clipPath id="SVGID_00000062905092447198872400000003780877397198763653_">
			<use xlink:href="#SVGID_00000089543886735435481930000011632855094063193735_"  style="overflow:visible;"/>
		</clipPath>
		
			<linearGradient id="SVGID_00000070837969878274730570000014267849773952103359_" gradientUnits="userSpaceOnUse" x1="2305.8071" y1="1572.6923" x2="1837.0951" y2="1006.2597">
			<stop  offset="0" style="stop-color:#008A80"/>
			<stop  offset="1" style="stop-color:#EBF855"/>
		</linearGradient>
		
			<rect x="1825.582" y="1052.554" style="clip-path:url(#SVGID_00000062905092447198872400000003780877397198763653_);fill:url(#SVGID_00000070837969878274730570000014267849773952103359_);" width="566.727" height="564.467"/>
	</g>
	<g>
		<defs>
			<path id="SVGID_00000077282180019948938250000016372070667923863456_" d="M2266.083,1256.474l-213.979-281.292
				c-74.612,210.768,208.337,523.322,334.085,572.536c9.898-32.786,20.737-63.594,31.648-91.759L2266.083,1256.474z"/>
		</defs>
		<clipPath id="SVGID_00000024700173679841987620000005652714282123884716_">
			<use xlink:href="#SVGID_00000077282180019948938250000016372070667923863456_"  style="overflow:visible;"/>
		</clipPath>
		
			<linearGradient id="SVGID_00000140719466389036892080000008786085096786069668_" gradientUnits="userSpaceOnUse" x1="2283.7114" y1="1528.1396" x2="2112.2405" y2="996.694">
			<stop  offset="0" style="stop-color:#008A80"/>
			<stop  offset="1" style="stop-color:#EBF855"/>
		</linearGradient>
		
			<rect x="1977.491" y="975.182" style="clip-path:url(#SVGID_00000024700173679841987620000005652714282123884716_);fill:url(#SVGID_00000140719466389036892080000008786085096786069668_);" width="440.346" height="572.536"/>
	</g>
	<g>
		<defs>
			<path id="SVGID_00000108301636913834357140000011951102391989079212_" d="M2401.493,1923.77
				c-27.088-115.273-30.629-265.396,34.719-443.656l-226.836-298.187c0,0,20.997,189.269,103.245,319.781
				c0,0-108.812,230.078-53.333,462.39c23.046,96.501,74.439,193.385,173.752,274.324c33.108-12.621,65.43-30.041,96.609-53.552
				C2529.649,2184.871,2440.792,2090.997,2401.493,1923.77"/>
		</defs>
		<clipPath id="SVGID_00000106859868546405854850000002289822876079726014_">
			<use xlink:href="#SVGID_00000108301636913834357140000011951102391989079212_"  style="overflow:visible;"/>
		</clipPath>
		
			<linearGradient id="SVGID_00000083779351357425256820000013935443179552613014_" gradientUnits="userSpaceOnUse" x1="2326.9736" y1="2014.1097" x2="2396.5413" y2="1482.2563">
			<stop  offset="0" style="stop-color:#00478F"/>
			<stop  offset="1" style="stop-color:#47EADF"/>
		</linearGradient>
		
			<rect x="2203.809" y="1181.928" style="clip-path:url(#SVGID_00000106859868546405854850000002289822876079726014_);fill:url(#SVGID_00000083779351357425256820000013935443179552613014_);" width="325.84" height="1056.495"/>
	</g>
	<defs>
		
			<filter id="Adobe_OpacityMaskFilter_00000098940560777097570260000014982156531424405421_" filterUnits="userSpaceOnUse" x="2209.376" y="1181.928" width="320.272" height="1019.399">
			<feColorMatrix  type="matrix" values="1 0 0 0 0  0 1 0 0 0  0 0 1 0 0  0 0 0 1 0"/>
		</filter>
	</defs>
	
		<mask maskUnits="userSpaceOnUse" x="2209.376" y="1181.928" width="320.272" height="1019.399" id="SVGID_00000066483998410217291020000014057682272534442887_">
		<g style="filter:url(#Adobe_OpacityMaskFilter_00000098940560777097570260000014982156531424405421_);">
			
				<linearGradient id="SVGID_00000047040946272919065540000001427085759309325492_" gradientUnits="userSpaceOnUse" x1="711.1675" y1="3686.0674" x2="829.7992" y2="4614.8198" gradientTransform="matrix(1 0 0 1 1587.5457 -2548.7224)">
				<stop  offset="0" style="stop-color:#FFFFFF"/>
				<stop  offset="1" style="stop-color:#000000"/>
			</linearGradient>
			
				<rect x="2209.376" y="1181.928" style="fill:url(#SVGID_00000047040946272919065540000001427085759309325492_);" width="320.274" height="1019.399"/>
		</g>
	</mask>
	
		<path style="mask:url(#SVGID_00000066483998410217291020000014057682272534442887_);fill-rule:evenodd;clip-rule:evenodd;fill:#5EF9F6;" d="
		M2401.493,1923.77c-27.088-115.273-30.629-265.396,34.719-443.656l-226.836-298.187c0,0,109.635,165.317,191.884,295.826
		c0,0-108.813,230.081-53.335,462.393c21.811,91.331,69.023,183.003,158.213,261.18c7.903-5.12,15.744-10.599,23.51-16.456
		C2529.649,2184.871,2440.792,2090.997,2401.493,1923.77"/>
	<defs>
		
			<filter id="Adobe_OpacityMaskFilter_00000046316608969719195460000018340050981545238931_" filterUnits="userSpaceOnUse" x="1865.403" y="1052.554" width="446.822" height="467.934">
			<feColorMatrix  type="matrix" values="1 0 0 0 0  0 1 0 0 0  0 0 1 0 0  0 0 0 1 0"/>
		</filter>
	</defs>
	
		<mask maskUnits="userSpaceOnUse" x="1865.403" y="1052.554" width="446.822" height="467.934" id="SVGID_00000165215100009928616700000010743588858368906882_">
		<g style="filter:url(#Adobe_OpacityMaskFilter_00000046316608969719195460000018340050981545238931_);">
			
				<linearGradient id="SVGID_00000085214271227107712910000010542675319433884328_" gradientUnits="userSpaceOnUse" x1="914.5914" y1="4036.0371" x2="120.7888" y2="3755.7271" gradientTransform="matrix(1 0 0 1 1553.8243 -2615.4683)">
				<stop  offset="0" style="stop-color:#FFFFFF"/>
				<stop  offset="1" style="stop-color:#000000"/>
			</linearGradient>
			
				<rect x="1865.403" y="1052.557" style="fill:url(#SVGID_00000085214271227107712910000010542675319433884328_);" width="446.822" height="467.931"/>
		</g>
	</mask>
	
		<path style="mask:url(#SVGID_00000165215100009928616700000010743588858368906882_);fill-rule:evenodd;clip-rule:evenodd;fill:#005B50;" d="
		M1865.403,1052.554c0,0,130.857,312.036,439.148,467.934c3.904-9.613,6.683-15.766,7.674-17.921
		c-65.099-50.489-141.393-132.853-196.66-224.239L1865.403,1052.554z"/>
	<defs>
		
			<filter id="Adobe_OpacityMaskFilter_00000133518753018602117360000001341759194269186957_" filterUnits="userSpaceOnUse" x="1714.162" y="1198.021" width="566.13" height="431.209">
			<feColorMatrix  type="matrix" values="1 0 0 0 0  0 1 0 0 0  0 0 1 0 0  0 0 0 1 0"/>
		</filter>
	</defs>
	
		<mask maskUnits="userSpaceOnUse" x="1714.162" y="1198.021" width="566.13" height="431.209" id="SVGID_00000038414972187226927030000006055690212482895522_">
		<g style="filter:url(#Adobe_OpacityMaskFilter_00000133518753018602117360000001341759194269186957_);">
			
				<linearGradient id="SVGID_00000053512316782869493250000002506351256443935918_" gradientUnits="userSpaceOnUse" x1="1084.4313" y1="4239.3579" x2="85.4995" y2="3886.9316" gradientTransform="matrix(1 0 0 1 1538.9974 -2604.8079)">
				<stop  offset="0" style="stop-color:#FFFFFF"/>
				<stop  offset="1" style="stop-color:#000000"/>
			</linearGradient>
			
				<rect x="1714.162" y="1198.018" style="fill:url(#SVGID_00000053512316782869493250000002506351256443935918_);" width="566.13" height="431.211"/>
		</g>
	</mask>
	
		<path style="mask:url(#SVGID_00000038414972187226927030000006055690212482895522_);fill-rule:evenodd;clip-rule:evenodd;fill:#005B50;" d="
		M2280.291,1589.466c-88.185-41.36-203.545-125.038-290.671-225.578l-275.458-165.867c0,0,274.791,322.453,555.035,431.209
		C2272.812,1615.012,2276.571,1601.709,2280.291,1589.466"/>
	<defs>
		
			<filter id="Adobe_OpacityMaskFilter_00000109749027501428172500000004065990065892348819_" filterUnits="userSpaceOnUse" x="1627.339" y="1425.133" width="631.504" height="282.781">
			<feColorMatrix  type="matrix" values="1 0 0 0 0  0 1 0 0 0  0 0 1 0 0  0 0 0 1 0"/>
		</filter>
	</defs>
	
		<mask maskUnits="userSpaceOnUse" x="1627.339" y="1425.133" width="631.504" height="282.781" id="SVGID_00000120537425170747973600000014385848186758365852_">
		<g style="filter:url(#Adobe_OpacityMaskFilter_00000109749027501428172500000004065990065892348819_);">
			
				<linearGradient id="SVGID_00000058585358766721851060000009908763623251400836_" gradientUnits="userSpaceOnUse" x1="1038.9766" y1="4384.6025" x2="40.0467" y2="4032.1768" gradientTransform="matrix(1 0 0 1 1530.4858 -2597.094)">
				<stop  offset="0" style="stop-color:#FFFFFF"/>
				<stop  offset="1" style="stop-color:#000000"/>
			</linearGradient>
			
				<rect x="1627.339" y="1425.13" style="fill:url(#SVGID_00000058585358766721851060000009908763623251400836_);" width="631.503" height="282.784"/>
		</g>
	</mask>
	
		<path style="mask:url(#SVGID_00000120537425170747973600000014385848186758365852_);fill-rule:evenodd;clip-rule:evenodd;fill:#005B50;" d="
		M1627.339,1425.133c0,0,307.124,232.957,625.634,282.781c1.781-11.304,3.756-22.306,5.87-32.967
		c-85.438-21.093-198.274-70.549-299.095-138.787L1627.339,1425.133z"/>
	<defs>
		
			<filter id="Adobe_OpacityMaskFilter_00000117648936890033732640000008531429195864799361_" filterUnits="userSpaceOnUse" x="1697.25" y="1674.36" width="548.319" height="123.471">
			<feColorMatrix  type="matrix" values="1 0 0 0 0  0 1 0 0 0  0 0 1 0 0  0 0 0 1 0"/>
		</filter>
	</defs>
	
		<mask maskUnits="userSpaceOnUse" x="1697.25" y="1674.36" width="548.319" height="123.471" id="SVGID_00000093175040717560023210000002921373501123197847_">
		<g style="filter:url(#Adobe_OpacityMaskFilter_00000117648936890033732640000008531429195864799361_);">
			
				<linearGradient id="SVGID_00000055705642639199078630000005293806623823165583_" gradientUnits="userSpaceOnUse" x1="982.0051" y1="4517.6514" x2="-16.8266" y2="4165.3271" gradientTransform="matrix(1 0 0 1 1537.3395 -2588.2791)">
				<stop  offset="0" style="stop-color:#FFFFFF"/>
				<stop  offset="1" style="stop-color:#000000"/>
			</linearGradient>
			
				<rect x="1697.25" y="1674.36" style="fill:url(#SVGID_00000055705642639199078630000005293806623823165583_);" width="548.317" height="123.471"/>
		</g>
	</mask>
	
		<path style="mask:url(#SVGID_00000093175040717560023210000002921373501123197847_);fill-rule:evenodd;clip-rule:evenodd;fill:#005B50;" d="
		M1697.25,1674.36c0,0,203.678,147.15,546.939,120.167c0.339-7.827,0.801-15.58,1.38-23.242
		c-86.299-4.455-199.26-27.957-305.444-69.874L1697.25,1674.36z"/>
	<defs>
		
			<filter id="Adobe_OpacityMaskFilter_00000064337717184073903270000008461551050841705148_" filterUnits="userSpaceOnUse" x="1865.001" y="1854.628" width="382.473" height="48.334">
			<feColorMatrix  type="matrix" values="1 0 0 0 0  0 1 0 0 0  0 0 1 0 0  0 0 0 1 0"/>
		</filter>
	</defs>
	
		<mask maskUnits="userSpaceOnUse" x="1865.001" y="1854.628" width="382.473" height="48.334" id="SVGID_00000129905121470938998550000013478710605493250949_">
		<g style="filter:url(#Adobe_OpacityMaskFilter_00000064337717184073903270000008461551050841705148_);">
			
				<linearGradient id="SVGID_00000117639478007955328220000003841243815090286769_" gradientUnits="userSpaceOnUse" x1="930.2222" y1="4607.688" x2="-68.7084" y2="4255.2622" gradientTransform="matrix(1 0 0 1 1553.7849 -2577.9724)">
				<stop  offset="0" style="stop-color:#FFFFFF"/>
				<stop  offset="1" style="stop-color:#000000"/>
			</linearGradient>
			
				<rect x="1865.001" y="1854.631" style="fill:url(#SVGID_00000117639478007955328220000003841243815090286769_);" width="382.473" height="48.333"/>
		</g>
	</mask>
	
		<path style="mask:url(#SVGID_00000129905121470938998550000013478710605493250949_);fill-rule:evenodd;clip-rule:evenodd;fill:#005B50;" d="
		M1865.001,1866.953c0,0,192.769,54.648,382.473,29.301c-1.307-11.553-2.264-23.048-2.91-34.449
		c-64.464,5.94-141.574,4.418-217.935-7.177L1865.001,1866.953z"/>
	<g>
		<defs>
			<path id="SVGID_00000143578918403897679570000000090607227251627916_" d="M1876.336,2884.281
				c175.758-15.859,305.313-331.54,289.829-423.885c-14.382,0.209-28.509-0.017-42.27-0.588L1876.336,2884.281z"/>
		</defs>
		<clipPath id="SVGID_00000165229875631283923710000012043425826657501572_">
			<use xlink:href="#SVGID_00000143578918403897679570000000090607227251627916_"  style="overflow:visible;"/>
		</clipPath>
		
			<linearGradient id="SVGID_00000098911311951682980830000015981540669086565776_" gradientUnits="userSpaceOnUse" x1="1843.1332" y1="2888.1038" x2="2009.5023" y2="2694.7009">
			<stop  offset="0" style="stop-color:#FFCE4B"/>
			<stop  offset="1" style="stop-color:#F856BF"/>
		</linearGradient>
		
			<rect x="1876.336" y="2459.808" style="clip-path:url(#SVGID_00000165229875631283923710000012043425826657501572_);fill:url(#SVGID_00000098911311951682980830000015981540669086565776_);" width="305.313" height="424.472"/>
	</g>
	<g>
		<defs>
			<path id="SVGID_00000125595136538025236110000003828014744873922461_" d="M2039.131,2695.915l-68.857,298.573
				c188-69.389,236.643-453.826,192.343-550.487c-11.716,3.347-23.348,6.383-34.834,9.142l-54.029,92.636L2039.131,2695.915z"/>
		</defs>
		<clipPath id="SVGID_00000158731766686034618320000007877094560139081628_">
			<use xlink:href="#SVGID_00000125595136538025236110000003828014744873922461_"  style="overflow:visible;"/>
		</clipPath>
		
			<linearGradient id="SVGID_00000053507591712166881180000007460362432420398497_" gradientUnits="userSpaceOnUse" x1="1950.2334" y1="2912.0078" x2="2102.5259" y2="2699.8374">
			<stop  offset="0" style="stop-color:#FFCE4B"/>
			<stop  offset="1" style="stop-color:#F856BF"/>
		</linearGradient>
		
			<rect x="1970.274" y="2444.002" style="clip-path:url(#SVGID_00000158731766686034618320000007877094560139081628_);fill:url(#SVGID_00000053507591712166881180000007460362432420398497_);" width="236.643" height="550.487"/>
	</g>
	<g>
		<defs>
			<path id="SVGID_00000139262927965276858010000016768894493757696907_" d="M2095.202,2709.891l6.845,315.109
				c169.905-116.723,121.193-512.332,52.581-597.507c-5.916,3.437-11.832,6.781-17.734,10.026l-45.896,78.695L2095.202,2709.891z"/>
		</defs>
		<clipPath id="SVGID_00000147186226338310625400000000631675238109745553_">
			<use xlink:href="#SVGID_00000139262927965276858010000016768894493757696907_"  style="overflow:visible;"/>
		</clipPath>
		
			<linearGradient id="SVGID_00000173159440413701001240000001291062466040573829_" gradientUnits="userSpaceOnUse" x1="2050.5366" y1="2868.3577" x2="2188.0386" y2="2719.1235">
			<stop  offset="0" style="stop-color:#FFCE4B"/>
			<stop  offset="1" style="stop-color:#F856BF"/>
		</linearGradient>
		
			<rect x="2090.999" y="2427.493" style="clip-path:url(#SVGID_00000147186226338310625400000000631675238109745553_);fill:url(#SVGID_00000173159440413701001240000001291062466040573829_);" width="180.954" height="597.507"/>
	</g>
	<g>
		<defs>
			<path id="SVGID_00000009569260613995759330000002946273766197180044_" d="M2159.698,2684.49l73.183,286.607
				c130.529-142.794,1.975-494.095-78.84-557.387c-2.367,2.229-4.741,4.433-7.119,6.617l-38.028,65.202L2159.698,2684.49z"/>
		</defs>
		<clipPath id="SVGID_00000119087922876421589730000005841546138126369716_">
			<use xlink:href="#SVGID_00000009569260613995759330000002946273766197180044_"  style="overflow:visible;"/>
		</clipPath>
		
			<linearGradient id="SVGID_00000132801575335926850070000014439203954497199239_" gradientUnits="userSpaceOnUse" x1="2180.3889" y1="2825.3628" x2="2244.3462" y2="2672.864">
			<stop  offset="0" style="stop-color:#FFCE4B"/>
			<stop  offset="1" style="stop-color:#F856BF"/>
		</linearGradient>
		
			<rect x="2108.894" y="2413.709" style="clip-path:url(#SVGID_00000119087922876421589730000005841546138126369716_);fill:url(#SVGID_00000132801575335926850070000014439203954497199239_);" width="254.515" height="557.387"/>
	</g>
	<g>
		<defs>
			<path id="SVGID_00000155125749539034089000000010165842960184865949_" d="M2190.867,2626.303l112.748,223.501
				c81.828-141.805-88.48-408.678-166.805-446.243l-1.378,2.012c7.015,8.475,11.49,14.753,11.49,14.753l-32.153,55.129
				L2190.867,2626.303z"/>
		</defs>
		<clipPath id="SVGID_00000008120509546434714200000001868128201878151325_">
			<use xlink:href="#SVGID_00000155125749539034089000000010165842960184865949_"  style="overflow:visible;"/>
		</clipPath>
		
			<linearGradient id="SVGID_00000109718491760372383340000005307381953341512617_" gradientUnits="userSpaceOnUse" x1="2267.0647" y1="2741.6296" x2="2240.8486" y2="2563.9385">
			<stop  offset="0" style="stop-color:#FFCE4B"/>
			<stop  offset="1" style="stop-color:#F856BF"/>
		</linearGradient>
		
			<rect x="2114.769" y="2403.561" style="clip-path:url(#SVGID_00000008120509546434714200000001868128201878151325_);fill:url(#SVGID_00000109718491760372383340000005307381953341512617_);" width="270.673" height="446.243"/>
	</g>
	<g>
		<defs>
			<path id="SVGID_00000127754554642245273800000005283786865264878742_" d="M1834.941,2016.394l-397.692,279.238
				c269.138,106.995,679.099-217.355,787.7-397.577c-29.822-30.763-57.244-63.601-82.398-97.654L1834.941,2016.394z"/>
		</defs>
		<clipPath id="SVGID_00000135655854637810332860000004259241327218362027_">
			<use xlink:href="#SVGID_00000127754554642245273800000005283786865264878742_"  style="overflow:visible;"/>
		</clipPath>
		
			<linearGradient id="SVGID_00000101825676893928003190000001074214034819963776_" gradientUnits="userSpaceOnUse" x1="1761.3848" y1="2159.7764" x2="1386.3137" y2="2473.2363">
			<stop  offset="0" style="stop-color:#008A80"/>
			<stop  offset="1" style="stop-color:#EBF855"/>
		</linearGradient>
		
			<rect x="1437.249" y="1800.401" style="clip-path:url(#SVGID_00000135655854637810332860000004259241327218362027_);fill:url(#SVGID_00000101825676893928003190000001074214034819963776_);" width="787.7" height="602.226"/>
	</g>
	<g>
		<defs>
			<path id="SVGID_00000127752947492800540440000002858728084812468352_" d="M1586.22,1709.419l-548.02,100.329
				c251.864,264.301,930.788,67.03,1058.289-76.675c-14.853-23.464-28.703-47.195-41.688-70.928l-32.875-32.494L1586.22,1709.419z"
				/>
		</defs>
		<clipPath id="SVGID_00000153704266738337989600000001093219172626121917_">
			<use xlink:href="#SVGID_00000127752947492800540440000002858728084812468352_"  style="overflow:visible;"/>
		</clipPath>
		
			<linearGradient id="SVGID_00000078036013275918303260000007012665352213743275_" gradientUnits="userSpaceOnUse" x1="1798.8997" y1="1880.6129" x2="981.8425" y2="1779.1182">
			<stop  offset="0" style="stop-color:#008A80"/>
			<stop  offset="1" style="stop-color:#EBF855"/>
		</linearGradient>
		
			<rect x="1038.2" y="1629.65" style="clip-path:url(#SVGID_00000153704266738337989600000001093219172626121917_);fill:url(#SVGID_00000078036013275918303260000007012665352213743275_);" width="1058.288" height="444.398"/>
	</g>
	<g>
		<defs>
			<path id="SVGID_00000016779520023049121430000006499891318056552615_" d="M1584.488,1539.697l-523.672-5.832
				c184.575,288.532,844.214,229.219,989.407,119.928c-19.873-36.927-37.528-73.749-53.195-109.503L1584.488,1539.697z"/>
		</defs>
		<clipPath id="SVGID_00000081632930428936553530000000547446830368590211_">
			<use xlink:href="#SVGID_00000016779520023049121430000006499891318056552615_"  style="overflow:visible;"/>
		</clipPath>
		
			<linearGradient id="SVGID_00000122706182955062077330000013677445975703775934_" gradientUnits="userSpaceOnUse" x1="1938.634" y1="1738.5427" x2="980.6057" y2="1587.4725">
			<stop  offset="0" style="stop-color:#008A80"/>
			<stop  offset="1" style="stop-color:#EBF855"/>
		</linearGradient>
		
			<rect x="1060.816" y="1533.864" style="clip-path:url(#SVGID_00000081632930428936553530000000547446830368590211_);fill:url(#SVGID_00000122706182955062077330000013677445975703775934_);" width="989.407" height="288.532"/>
	</g>
	<g>
		<defs>
			<path id="SVGID_00000080925943394504527710000008338073411661175958_" d="M2706.127,2073.986c0,0,153.465-16.152,253.619,92.078
				c0,0-14.541-93.692-53.31-121.156c66.833-174.003-135.926-315.196-320.205-284.799
				c-294.45,48.577-535.832,707.548-514.968,950.344C2269.151,2527.339,2636.142,2416.406,2706.127,2073.986"/>
		</defs>
		<clipPath id="SVGID_00000094588149930961675590000013342346086437231744_">
			<use xlink:href="#SVGID_00000080925943394504527710000008338073411661175958_"  style="overflow:visible;"/>
		</clipPath>
		
			<linearGradient id="SVGID_00000141414443548983049390000003857330542117876627_" gradientUnits="userSpaceOnUse" x1="2499.3833" y1="2560.5239" x2="2528.4543" y2="1765.7048">
			<stop  offset="0" style="stop-color:#003780"/>
			<stop  offset="1" style="stop-color:#D820D2"/>
		</linearGradient>
		
			<rect x="2050.4" y="1729.713" style="clip-path:url(#SVGID_00000094588149930961675590000013342346086437231744_);fill:url(#SVGID_00000141414443548983049390000003857330542117876627_);" width="922.871" height="980.742"/>
	</g>
	<path style="fill-rule:evenodd;clip-rule:evenodd;fill:#003780;" d="M2112.205,2426.218
		c86.165-181.128,327.924-213.114,458.63-216.643c-102.667-8.293-191.442-38.653-267.739-81.815
		c-18.797-10.634-36.837-22.045-54.143-34.093c-0.978-0.68-1.952-1.362-2.926-2.047c-5.453,10.19-10.806,20.488-16.057,30.88
		c-26.263,51.996-49.917,106.271-70.474,160.476C2141.16,2331.331,2125.283,2379.634,2112.205,2426.218"/>
	<defs>
		
			<filter id="Adobe_OpacityMaskFilter_00000020390715065175286470000009967886509597636015_" filterUnits="userSpaceOnUse" x="2351.472" y="1755.968" width="559.643" height="171.64">
			<feColorMatrix  type="matrix" values="1 0 0 0 0  0 1 0 0 0  0 0 1 0 0  0 0 0 1 0"/>
		</filter>
	</defs>
	
		<mask maskUnits="userSpaceOnUse" x="2351.472" y="1755.968" width="559.643" height="171.64" id="SVGID_00000133515233585430079940000011082863539805525644_">
		<g style="filter:url(#Adobe_OpacityMaskFilter_00000020390715065175286470000009967886509597636015_);">
			
				<linearGradient id="SVGID_00000010308894298733934270000011546126322324285578_" gradientUnits="userSpaceOnUse" x1="1051.1823" y1="4053.1499" x2="1016.5005" y2="4644.3687" gradientTransform="matrix(1 0 0 1 1601.476 -2575.5564)">
				<stop  offset="0" style="stop-color:#FFFFFF"/>
				<stop  offset="1" style="stop-color:#000000"/>
			</linearGradient>
			
				<rect x="2351.472" y="1755.968" style="fill:url(#SVGID_00000010308894298733934270000011546126322324285578_);" width="559.645" height="171.64"/>
		</g>
	</mask>
	
		<path style="mask:url(#SVGID_00000133515233585430079940000011082863539805525644_);fill-rule:evenodd;clip-rule:evenodd;fill:#FCE2A6;" d="
		M2351.472,1927.608c0,0,286.059-180.109,559.644-3.066c-36.459-112.711-185.924-187.356-324.884-164.433
		C2502.007,1774.006,2422.12,1837.846,2351.472,1927.608"/>
	<g>
		<defs>
			<path id="SVGID_00000025439282977501089930000003077082823575669166_" d="M2187.99,2081.28l-178.037,255.196
				c148.189,4.286,290.06-176.972,354.224-317.43c-30.503-20.329-59.024-43.001-85.683-67.488L2187.99,2081.28z"/>
		</defs>
		<clipPath id="SVGID_00000115485121127239884730000014983317546797430705_">
			<use xlink:href="#SVGID_00000025439282977501089930000003077082823575669166_"  style="overflow:visible;"/>
		</clipPath>
		
			<linearGradient id="SVGID_00000022543697021069458200000002539097042619462813_" gradientUnits="userSpaceOnUse" x1="2257.2463" y1="2167.1379" x2="1949.0905" y2="2075.0271">
			<stop  offset="0" style="stop-color:#008A80"/>
			<stop  offset="1" style="stop-color:#EBF855"/>
		</linearGradient>
		
			<rect x="2009.953" y="1951.558" style="clip-path:url(#SVGID_00000115485121127239884730000014983317546797430705_);fill:url(#SVGID_00000022543697021069458200000002539097042619462813_);" width="354.223" height="389.204"/>
	</g>
	<defs>
		
			<filter id="Adobe_OpacityMaskFilter_00000061467265446249113570000014873929050227739276_" filterUnits="userSpaceOnUse" x="2009.953" y="1951.558" width="295.393" height="384.918">
			<feColorMatrix  type="matrix" values="1 0 0 0 0  0 1 0 0 0  0 0 1 0 0  0 0 0 1 0"/>
		</filter>
	</defs>
	
		<mask maskUnits="userSpaceOnUse" x="2009.953" y="1951.558" width="295.393" height="384.918" id="SVGID_00000094591286020263788230000015024105616809872278_">
		<g style="filter:url(#Adobe_OpacityMaskFilter_00000061467265446249113570000014873929050227739276_);">
			
				<linearGradient id="SVGID_00000040558607740304252060000003547742625343633802_" gradientUnits="userSpaceOnUse" x1="969.7458" y1="4525.939" x2="-325.8174" y2="5049.3252" gradientTransform="matrix(1 0 0 1 1567.9952 -2535.4731)">
				<stop  offset="0" style="stop-color:#FFFFFF"/>
				<stop  offset="1" style="stop-color:#000000"/>
			</linearGradient>
			
				<rect x="2009.953" y="1951.558" style="fill:url(#SVGID_00000040558607740304252060000003547742625343633802_);" width="295.393" height="384.918"/>
		</g>
	</mask>
	
		<path style="mask:url(#SVGID_00000094591286020263788230000015024105616809872278_);fill-rule:evenodd;clip-rule:evenodd;fill:#005B50;" d="
		M2187.99,2081.28l-178.037,255.196c0,0,221.294-138.867,295.393-361.414c-9.153-7.628-18.102-15.47-26.852-23.504L2187.99,2081.28z
		"/>
	<g>
		<defs>
			<path id="SVGID_00000054972781157887438650000001611916555325431199_" d="M2037.536,2065.984l-266.271,273.707
				c202.114,39.158,441.597-211.007,528.055-373.854c-30.841-24.65-59.573-51.61-86.276-80.264L2037.536,2065.984z"/>
		</defs>
		<clipPath id="SVGID_00000075852791514918765800000008116321963303275907_">
			<use xlink:href="#SVGID_00000054972781157887438650000001611916555325431199_"  style="overflow:visible;"/>
		</clipPath>
		
			<linearGradient id="SVGID_00000155113360022244027570000014952301219252509347_" gradientUnits="userSpaceOnUse" x1="2019.5919" y1="2155.6245" x2="1734.8975" y2="2580.1665">
			<stop  offset="0" style="stop-color:#008A80"/>
			<stop  offset="1" style="stop-color:#EBF855"/>
		</linearGradient>
		
			<rect x="1771.265" y="1885.573" style="clip-path:url(#SVGID_00000075852791514918765800000008116321963303275907_);fill:url(#SVGID_00000155113360022244027570000014952301219252509347_);" width="528.055" height="493.276"/>
	</g>
	<g>
		<defs>
			<path id="SVGID_00000054984043400911083650000014570600443955048873_" d="M1663.558,1892.83l-512.989,217.325
				c294.547,197.144,887.148-117.988,1006.702-290.302c-20.717-26.724-40.004-54.292-57.9-82.291l-27.956-17.522L1663.558,1892.83z"
				/>
		</defs>
		<clipPath id="SVGID_00000092456260828496008050000006125903965094306463_">
			<use xlink:href="#SVGID_00000054984043400911083650000014570600443955048873_"  style="overflow:visible;"/>
		</clipPath>
		
			<linearGradient id="SVGID_00000113316439038703644440000015935332398520127899_" gradientUnits="userSpaceOnUse" x1="1744.4745" y1="1961.4347" x2="1093.8895" y2="2336.7112">
			<stop  offset="0" style="stop-color:#008A80"/>
			<stop  offset="1" style="stop-color:#EBF855"/>
		</linearGradient>
		
			<rect x="1150.568" y="1720.04" style="clip-path:url(#SVGID_00000092456260828496008050000006125903965094306463_);fill:url(#SVGID_00000113316439038703644440000015935332398520127899_);" width="1006.702" height="587.259"/>
	</g>
	<g>
		<defs>
			<path id="SVGID_00000002345358902631177750000015792515242722940803_" d="M1635.094,1385.815l-457.158-91.436
				c110.173,273.587,662.837,335.739,830.164,274.653c-18.83-41.066-34.998-80.999-48.796-118.376L1635.094,1385.815z"/>
		</defs>
		<clipPath id="SVGID_00000011019809995428756600000017221110836432070319_">
			<use xlink:href="#SVGID_00000002345358902631177750000015792515242722940803_"  style="overflow:visible;"/>
		</clipPath>
		
			<linearGradient id="SVGID_00000177450197121881949370000013749842960996336547_" gradientUnits="userSpaceOnUse" x1="1889.9851" y1="1638.5171" x2="1256.5363" y2="1262.5267">
			<stop  offset="0" style="stop-color:#008A80"/>
			<stop  offset="1" style="stop-color:#EBF855"/>
		</linearGradient>
		
			<rect x="1177.936" y="1294.38" style="clip-path:url(#SVGID_00000011019809995428756600000017221110836432070319_);fill:url(#SVGID_00000177450197121881949370000013749842960996336547_);" width="830.164" height="335.739"/>
	</g>
	<g>
		<defs>
			<path id="SVGID_00000087372437029641336340000016270974619598618502_" d="M2351.472,1927.608
				c-127.405-90.367-261.945-235.756-352.908-469.1l-484.622-96.924c0,0,185.974,168.868,381.239,226.156
				c0,0,93.204,322.535,350.848,503.88c107.021,75.326,242.418,126.291,411.291,119.659c21.727-41.385,38.495-86.826,48.808-137.293
				C2706.127,2073.986,2536.303,2058.7,2351.472,1927.608"/>
		</defs>
		<clipPath id="SVGID_00000007417788564513817550000007392421452564844696_">
			<use xlink:href="#SVGID_00000087372437029641336340000016270974619598618502_"  style="overflow:visible;"/>
		</clipPath>
		
			<linearGradient id="SVGID_00000021095190494587889900000009273778048915633846_" gradientUnits="userSpaceOnUse" x1="2322.4705" y1="2105.0032" x2="1927.0999" y2="1518.2723">
			<stop  offset="0" style="stop-color:#00478F"/>
			<stop  offset="1" style="stop-color:#47EADF"/>
		</linearGradient>
		
			<rect x="1513.941" y="1361.584" style="clip-path:url(#SVGID_00000007417788564513817550000007392421452564844696_);fill:url(#SVGID_00000021095190494587889900000009273778048915633846_);" width="1192.186" height="856.326"/>
	</g>
	<defs>
		
			<filter id="Adobe_OpacityMaskFilter_00000119103853961937616970000016565084174877829517_" filterUnits="userSpaceOnUse" x="1513.941" y="1361.584" width="1192.186" height="749.206">
			<feColorMatrix  type="matrix" values="1 0 0 0 0  0 1 0 0 0  0 0 1 0 0  0 0 0 1 0"/>
		</filter>
	</defs>
	
		<mask maskUnits="userSpaceOnUse" x="1513.941" y="1361.584" width="1192.186" height="749.206" id="SVGID_00000101817638439335051270000007324990261686353583_">
		<g style="filter:url(#Adobe_OpacityMaskFilter_00000119103853961937616970000016565084174877829517_);">
			
				<linearGradient id="SVGID_00000014629616696780953660000003333558358634709410_" gradientUnits="userSpaceOnUse" x1="35.768" y1="3806.406" x2="963.807" y2="4621.5244" gradientTransform="matrix(1 0 0 1 1519.3689 -2557.5981)">
				<stop  offset="0" style="stop-color:#FFFFFF"/>
				<stop  offset="1" style="stop-color:#000000"/>
			</linearGradient>
			
				<rect x="1513.941" y="1361.584" style="fill:url(#SVGID_00000014629616696780953660000003333558358634709410_);" width="1192.186" height="749.206"/>
		</g>
	</mask>
	
		<path style="mask:url(#SVGID_00000101817638439335051270000007324990261686353583_);fill-rule:evenodd;clip-rule:evenodd;fill:#5EF9F6;" d="
		M2351.472,1927.608c-127.405-90.367-261.945-235.756-352.908-469.1l-484.622-96.924c0,0,252.732,67.81,447.996,125.1
		c0,0,93.207,322.535,350.851,503.875c101.288,71.294,228,120.755,384.449,120.227c3.346-11.966,6.319-24.226,8.889-36.8
		C2706.127,2073.986,2536.303,2058.7,2351.472,1927.608"/>
	<defs>
		
			<filter id="Adobe_OpacityMaskFilter_00000101807355397430224820000015564748255904726949_" filterUnits="userSpaceOnUse" x="1060.816" y="1533.864" width="842.769" height="115.823">
			<feColorMatrix  type="matrix" values="1 0 0 0 0  0 1 0 0 0  0 0 1 0 0  0 0 0 1 0"/>
		</filter>
	</defs>
	
		<mask maskUnits="userSpaceOnUse" x="1060.816" y="1533.864" width="842.769" height="115.823" id="SVGID_00000136385818371316648000000009713657634107681202_">
		<g style="filter:url(#Adobe_OpacityMaskFilter_00000101807355397430224820000015564748255904726949_);">
			
				<linearGradient id="SVGID_00000119810010176754597410000017485744194093798579_" gradientUnits="userSpaceOnUse" x1="510.4436" y1="3991.4785" x2="-519.3942" y2="4407.146" gradientTransform="matrix(1 0 0 1 1474.9469 -2602.8022)">
				<stop  offset="0" style="stop-color:#FFFFFF"/>
				<stop  offset="1" style="stop-color:#000000"/>
			</linearGradient>
			
				<rect x="1060.816" y="1533.864" style="fill:url(#SVGID_00000119810010176754597410000017485744194093798579_);" width="842.769" height="115.824"/>
		</g>
	</mask>
	
		<path style="mask:url(#SVGID_00000136385818371316648000000009713657634107681202_);fill-rule:evenodd;clip-rule:evenodd;fill:#005B50;" d="
		M1060.816,1533.864c0,0,401.784,194.399,842.769,79.494c-4.525-12.912-7.151-21.43-8.05-24.42
		c-108.453,6.888-255.802-7.982-390.23-50.123L1060.816,1533.864z"/>
	<defs>
		
			<filter id="Adobe_OpacityMaskFilter_00000118394367007263220440000003160033759993461144_" filterUnits="userSpaceOnUse" x="1038.2" y="1702.757" width="925.334" height="129.682">
			<feColorMatrix  type="matrix" values="1 0 0 0 0  0 1 0 0 0  0 0 1 0 0  0 0 0 1 0"/>
		</filter>
	</defs>
	
		<mask maskUnits="userSpaceOnUse" x="1038.2" y="1702.757" width="925.334" height="129.682" id="SVGID_00000048484137458061993180000017923849222190508173_">
		<g style="filter:url(#Adobe_OpacityMaskFilter_00000118394367007263220440000003160033759993461144_);">
			
				<linearGradient id="SVGID_00000088851447308747289040000011914186613502872995_" gradientUnits="userSpaceOnUse" x1="842.0934" y1="4023.6594" x2="-453.4709" y2="4547.0464" gradientTransform="matrix(1 0 0 1 1472.7297 -2584.8862)">
				<stop  offset="0" style="stop-color:#FFFFFF"/>
				<stop  offset="1" style="stop-color:#000000"/>
			</linearGradient>
			
				<rect x="1038.2" y="1702.757" style="fill:url(#SVGID_00000088851447308747289040000011914186613502872995_);" width="925.334" height="129.682"/>
		</g>
	</mask>
	
		<path style="mask:url(#SVGID_00000048484137458061993180000017923849222190508173_);fill-rule:evenodd;clip-rule:evenodd;fill:#005B50;" d="
		M1939.801,1702.757c-123.316,36.063-310.452,53.996-484.383,30.606l-417.218,76.384c0,0,553.233,79.066,925.334-57.98
		C1954.703,1734.551,1946.806,1718.115,1939.801,1702.757"/>
	<defs>
		
			<filter id="Adobe_OpacityMaskFilter_00000175281633090120736030000008197440148884748674_" filterUnits="userSpaceOnUse" x="1150.568" y="1806.024" width="865.604" height="304.131">
			<feColorMatrix  type="matrix" values="1 0 0 0 0  0 1 0 0 0  0 0 1 0 0  0 0 0 1 0"/>
		</filter>
	</defs>
	
		<mask maskUnits="userSpaceOnUse" x="1150.568" y="1806.024" width="865.604" height="304.131" id="SVGID_00000103966061466022965810000001985200549049286532_">
		<g style="filter:url(#Adobe_OpacityMaskFilter_00000175281633090120736030000008197440148884748674_);">
			
				<linearGradient id="SVGID_00000017492309173380023560000012760326807577869696_" gradientUnits="userSpaceOnUse" x1="908.8427" y1="4188.8384" x2="-386.7201" y2="4712.2246" gradientTransform="matrix(1 0 0 1 1483.7457 -2557.6604)">
				<stop  offset="0" style="stop-color:#FFFFFF"/>
				<stop  offset="1" style="stop-color:#000000"/>
			</linearGradient>
			
				<rect x="1150.568" y="1806.022" style="fill:url(#SVGID_00000017492309173380023560000012760326807577869696_);" width="865.605" height="304.134"/>
		</g>
	</mask>
	
		<path style="mask:url(#SVGID_00000103966061466022965810000001985200549049286532_);fill-rule:evenodd;clip-rule:evenodd;fill:#005B50;" d="
		M1150.568,2110.156c0,0,507.095-37.671,865.604-266.402c-8.107-12.733-15.758-25.339-22.972-37.729
		c-102.91,53.712-257.679,103.285-416.955,123.798L1150.568,2110.156z"/>
	<defs>
		
			<filter id="Adobe_OpacityMaskFilter_00000122701932912933359270000004766658898697415559_" filterUnits="userSpaceOnUse" x="1437.249" y="1912.89" width="645.833" height="382.742">
			<feColorMatrix  type="matrix" values="1 0 0 0 0  0 1 0 0 0  0 0 1 0 0  0 0 0 1 0"/>
		</filter>
	</defs>
	
		<mask maskUnits="userSpaceOnUse" x="1437.249" y="1912.89" width="645.833" height="382.742" id="SVGID_00000108283714895149058130000001163599369126756785_">
		<g style="filter:url(#Adobe_OpacityMaskFilter_00000122701932912933359270000004766658898697415559_);">
			
				<linearGradient id="SVGID_00000081634954444206307580000000037794886759902601_" gradientUnits="userSpaceOnUse" x1="956.2863" y1="4357.7295" x2="-339.2747" y2="4881.1147" gradientTransform="matrix(1 0 0 1 1511.8503 -2539.4773)">
				<stop  offset="0" style="stop-color:#FFFFFF"/>
				<stop  offset="1" style="stop-color:#000000"/>
			</linearGradient>
			
				<rect x="1437.249" y="1912.89" style="fill:url(#SVGID_00000081634954444206307580000000037794886759902601_);" width="645.833" height="382.742"/>
		</g>
	</mask>
	
		<path style="mask:url(#SVGID_00000108283714895149058130000001163599369126756785_);fill-rule:evenodd;clip-rule:evenodd;fill:#005B50;" d="
		M1437.249,2295.632c0,0,329.888-32.243,645.833-358.55c-6.5-8.036-12.807-16.108-18.925-24.191
		c-89.239,70.923-221.478,146.276-363.084,197.497L1437.249,2295.632z"/>
	<defs>
		
			<filter id="Adobe_OpacityMaskFilter_00000000220817219236440480000015695017119990343089_" filterUnits="userSpaceOnUse" x="1771.265" y="2003.295" width="403.86" height="336.396">
			<feColorMatrix  type="matrix" values="1 0 0 0 0  0 1 0 0 0  0 0 1 0 0  0 0 0 1 0"/>
		</filter>
	</defs>
	
		<mask maskUnits="userSpaceOnUse" x="1771.265" y="2003.295" width="403.86" height="336.396" id="SVGID_00000070089386830910875030000007831813068466291118_">
		<g style="filter:url(#Adobe_OpacityMaskFilter_00000000220817219236440480000015695017119990343089_);">
			
				<linearGradient id="SVGID_00000154426757760120033460000014690806838145027487_" gradientUnits="userSpaceOnUse" x1="976.8416" y1="4485.1265" x2="-318.7213" y2="5008.6152" gradientTransform="matrix(1 0 0 1 1544.5956 -2535.158)">
				<stop  offset="0" style="stop-color:#FFFFFF"/>
				<stop  offset="1" style="stop-color:#000000"/>
			</linearGradient>
			
				<rect x="1771.265" y="2003.295" style="fill:url(#SVGID_00000154426757760120033460000014690806838145027487_);" width="403.86" height="336.396"/>
		</g>
	</mask>
	
		<path style="mask:url(#SVGID_00000070089386830910875030000007831813068466291118_);fill-rule:evenodd;clip-rule:evenodd;fill:#005B50;" d="
		M1771.265,2339.691c0,0,238.355-114.21,403.86-304.863c-11.381-10.288-22.36-20.817-32.947-31.533
		c-58.573,62.144-136.166,127.944-221.812,183.13L1771.265,2339.691z"/>
</g>
</svg>
